<svg width="199" height="56" viewBox="0 0 199 56" fill="none" xmlns="http://www.w3.org/2000/svg">
<g opacity="0.4">
<mask id="mask0_853_853" style="mask-type:alpha" maskUnits="userSpaceOnUse" x="0" y="0" width="199" height="56">
<rect width="199" height="56" fill="#C4C4C4"/>
</mask>
<g mask="url(#mask0_853_853)">
</g>
<g clip-path="url(#clip0_853_853)">
<path d="M14.8137 12.3926H23.0563V33.6146C23.0563 37.1359 25.3566 39.0118 28.8779 39.0118C32.3992 39.0118 34.6996 37.1359 34.6996 33.6146V12.3926H42.8897V33.6146C42.8897 41.176 37.351 46.526 28.8989 46.526C20.3577 46.526 14.8137 41.176 14.8137 33.6146V12.3926Z" fill="white"/>
<path fill-rule="evenodd" clip-rule="evenodd" d="M12.2878 4.54321C8.30967 7.25991 5.09433 10.951 2.94882 15.2642C0.803316 19.5773 -0.200718 24.3684 0.032585 29.18C0.265888 33.9916 1.72874 38.6631 4.28146 42.7485C6.83419 46.8338 10.3916 50.1965 14.6139 52.5156C18.8362 54.8347 23.5826 56.0326 28.3997 55.9951C33.2168 55.9576 37.9439 54.6859 42.1297 52.3014C46.3154 49.9168 49.82 46.4991 52.3088 42.3745C54.7976 38.25 56.1875 33.5563 56.3459 28.7416C55.6314 32.9197 53.9286 36.8666 51.3793 40.2531C48.83 43.6396 45.5081 46.3677 41.6906 48.2099C37.873 50.052 33.6704 50.955 29.433 50.8434C25.1957 50.7318 21.0464 49.6088 17.3312 47.5683C13.6159 45.5277 10.4422 42.6285 8.07469 39.1125C5.70719 35.5965 4.21448 31.5655 3.721 27.3555C3.22751 23.1455 3.74755 18.8786 5.23775 14.9104C6.72796 10.9422 9.14516 7.38768 12.2878 4.54321Z" fill="white"/>
<path fill-rule="evenodd" clip-rule="evenodd" d="M43.7752 43.4188C47.131 41.1266 49.8434 38.0126 51.6534 34.374C53.4634 30.7353 54.3107 26.6935 54.1144 22.6343C53.9181 18.5751 52.6847 14.6339 50.5319 11.1869C48.3792 7.73996 45.3789 4.90224 41.8175 2.9446C38.2561 0.986962 34.2525 -0.0252583 30.1886 0.00454588C26.1247 0.0343501 22.1363 1.10518 18.604 3.11485C15.0717 5.12451 12.1134 8.00593 10.0115 11.4841C7.90952 14.9623 6.73407 18.9211 6.59729 22.9828C7.20602 19.461 8.64701 16.1356 10.8004 13.2832C12.9537 10.4308 15.7571 8.13391 18.9773 6.58365C22.1976 5.0334 25.7414 4.27461 29.3141 4.37045C32.8868 4.46628 36.3849 5.41395 39.5174 7.13461C42.6499 8.85527 45.3261 11.2992 47.3234 14.2629C49.3208 17.2266 50.5814 20.6245 51.0005 24.1738C51.4195 27.7231 50.9849 31.3212 49.7327 34.6686C48.4805 38.016 46.447 41.0159 43.8014 43.4188H43.7752Z" fill="white"/>
<path d="M82.8863 3.81999V3.06543H92.7113V3.81999H91.6633C91.1595 3.80256 90.6603 3.92078 90.2178 4.16229C89.7754 4.4038 89.4059 4.75973 89.1481 5.19287C88.8599 5.6278 88.7184 6.61292 88.7184 8.13776V19.3881C88.7184 22.1548 88.4389 24.3172 87.88 25.8752C87.5536 26.8194 87.0363 27.6862 86.3604 28.4218C85.7106 29.126 84.9427 29.7112 84.0915 30.1511C83.1971 30.6125 82.2431 30.9476 81.2566 31.1467C80.1957 31.3591 79.116 31.4644 78.034 31.4611C75.0158 31.4611 72.7154 30.9371 71.1329 29.8891C70.2482 29.332 69.4693 28.6223 68.8326 27.793C68.2933 27.0664 67.8902 26.2479 67.6431 25.3774C67.3803 24.4238 67.2326 23.4422 67.2029 22.4535C67.161 21.4055 67.1453 20.1636 67.1453 18.7855V7.97532C67.1566 7.27244 67.0969 6.57021 66.9671 5.87932C66.8951 5.42115 66.7155 4.98658 66.4431 4.61123C66.2033 4.30702 65.873 4.08684 65.4999 3.98243C65.0621 3.86814 64.6109 3.8135 64.1585 3.81999H63.1105V3.06543H75.1049V3.81999H74.0569C73.5191 3.80018 72.9833 3.89485 72.4848 4.09771C72.108 4.26672 71.793 4.54873 71.5836 4.90467C71.3645 5.31027 71.229 5.75575 71.1853 6.21468C71.1207 6.79927 71.091 7.38719 71.0962 7.97532V20.0745C71.0962 20.7557 71.0962 21.4317 71.1539 22.0972C71.1943 22.748 71.2766 23.3956 71.4002 24.036C71.5242 24.635 71.6995 25.2223 71.9242 25.7914C72.1283 26.3355 72.407 26.8486 72.7521 27.3162C73.3061 28.0702 74.0415 28.6722 74.89 29.0664C75.9716 29.5351 77.1441 29.7571 78.3222 29.7161C79.195 29.7174 80.0645 29.61 80.9108 29.3965C81.7013 29.2001 82.4636 28.9043 83.1797 28.5162C83.841 28.1658 84.4453 27.7171 84.9718 27.1852C85.4566 26.6996 85.8458 26.1272 86.1194 25.4979C86.6469 24.2578 86.9123 22.1618 86.9158 19.2099V7.97532C86.9158 6.22865 86.7254 5.14397 86.3447 4.72127C86.038 4.40792 85.6669 4.16501 85.257 4.00938C84.8471 3.85375 84.4083 3.78913 83.9709 3.81999H82.8863Z" fill="white"/>
<path d="M117.193 23.1452L117.869 23.2866L115.495 30.8165H94.011V30.062H95.059C95.5415 30.1028 96.0264 30.0187 96.4669 29.8177C96.9075 29.6167 97.2888 29.3056 97.5742 28.9144C97.8624 28.49 98.0039 27.4839 98.0039 25.8857V7.97532C98.0039 6.22865 97.8135 5.14397 97.4327 4.72127C97.1261 4.40792 96.7549 4.16501 96.345 4.00938C95.9352 3.85375 95.4963 3.78913 95.059 3.81999H94.011V3.06543H106.587V3.81999C105.962 3.81355 105.337 3.84856 104.716 3.92479C104.294 3.97172 103.88 4.07391 103.485 4.22871C103.195 4.33866 102.93 4.50421 102.704 4.71603C102.522 4.89346 102.367 5.09646 102.243 5.31863C102.023 5.74133 101.913 6.78933 101.913 8.46264V25.8857C101.909 26.295 101.927 26.7043 101.965 27.1118C101.988 27.4025 102.046 27.6893 102.138 27.966C102.21 28.1695 102.323 28.3566 102.468 28.5162C102.615 28.6661 102.795 28.7808 102.992 28.8515C103.321 28.9913 104.386 29.0611 106.189 29.0611H108.211C110.328 29.0611 111.824 28.9039 112.697 28.5895C113.131 28.4387 113.544 28.2308 113.923 27.9712C114.342 27.6759 114.718 27.3231 115.039 26.9232C115.437 26.4333 115.788 25.907 116.087 25.3512C116.499 24.6383 116.868 23.9017 117.193 23.1452Z" fill="white"/>
<path d="M139.18 3.06543V9.57352H138.709C138.633 8.81307 138.456 8.06601 138.184 7.35176C137.967 6.7937 137.629 6.29078 137.194 5.87932C136.767 5.49271 136.256 5.21102 135.701 5.05663C135.022 4.87598 134.322 4.79131 133.62 4.80511H129.711V26.0062C129.711 27.7144 129.895 28.7799 130.262 29.2026C130.575 29.5098 130.952 29.7456 131.365 29.8939C131.778 30.0422 132.219 30.0996 132.656 30.062H133.62V30.8165H121.862V30.062H122.842C124.016 30.062 124.849 29.7126 125.341 29.014C125.642 28.5878 125.792 27.5904 125.792 26.0219V4.80511H122.454C121.713 4.79448 120.972 4.8559 120.243 4.98851C119.671 5.09298 119.132 5.33185 118.671 5.68544C118.204 6.07267 117.843 6.57212 117.623 7.13692C117.306 7.91709 117.098 8.73691 117.004 9.57352H116.229V3.06543H139.18Z" fill="white"/>
<path d="M168.859 30.8165H161.45L152.055 17.8423L151.101 17.8737H150.352H149.78L149.146 17.8423V25.9066C149.146 27.6533 149.337 28.738 149.718 29.1607C150.016 29.475 150.38 29.7189 150.785 29.8748C151.189 30.0307 151.623 30.0946 152.055 30.062H153.139V30.8165H141.245V30.062H142.293C142.776 30.1032 143.262 30.0193 143.703 29.8183C144.145 29.6173 144.527 29.306 144.813 28.9144C145.099 28.4882 145.243 27.4856 145.243 25.9066V7.97532C145.243 6.22865 145.051 5.14397 144.666 4.72127C144.36 4.40706 143.989 4.16357 143.579 4.00788C143.169 3.85219 142.73 3.78806 142.293 3.81999H141.245V3.06543H151.358C154.278 3.06543 156.448 3.28376 157.866 3.72043C158.561 3.92335 159.22 4.23269 159.82 4.63743C160.421 5.04235 160.96 5.53314 161.419 6.09416C161.878 6.65918 162.245 7.2943 162.503 7.97532C162.773 8.68846 162.908 9.44529 162.901 10.2076C162.908 11.0271 162.77 11.8414 162.493 12.6127C162.215 13.3759 161.787 14.076 161.235 14.6721C160.615 15.3132 159.89 15.8447 159.092 16.2441C158.133 16.7258 157.115 17.0782 156.063 17.2921L161.796 25.2569C163.122 27.0961 164.243 28.3118 165.176 28.9249C166.295 29.5806 167.55 29.973 168.844 30.0724L168.859 30.8165ZM149.146 16.5532H149.822H150.294C151.474 16.5707 152.649 16.4153 153.784 16.0921C154.693 15.8314 155.544 15.3973 156.289 14.8135C156.936 14.2969 157.451 13.6343 157.792 12.88C158.139 12.1181 158.317 11.2907 158.316 10.4538C158.327 9.64405 158.181 8.83982 157.887 8.08536C157.612 7.39991 157.2 6.77768 156.676 6.2566C156.135 5.73026 155.494 5.31856 154.79 5.04615C154.022 4.7543 153.206 4.60858 152.385 4.61647C151.92 4.62104 151.457 4.65254 150.996 4.71079C150.462 4.77367 149.854 4.87323 149.173 5.00947L149.146 16.5532Z" fill="white"/>
<path d="M187.671 21.526H176.924L175.016 25.9066C174.638 26.662 174.404 27.4811 174.325 28.3223C174.322 28.5283 174.36 28.7329 174.435 28.9249C174.533 29.1415 174.693 29.324 174.896 29.4489C175.198 29.6323 175.53 29.7634 175.876 29.8366C176.422 29.9592 176.978 30.038 177.537 30.0724V30.827H168.818V30.062C169.965 29.8576 170.714 29.5904 171.071 29.2655C171.507 28.8239 171.876 28.3207 172.166 27.7721C172.615 26.959 173.02 26.123 173.382 25.2673L183.144 2.4209H183.862L193.524 25.5189C193.839 26.3088 194.204 27.0772 194.619 27.8192C194.894 28.3231 195.248 28.7795 195.667 29.1712C195.997 29.4786 196.394 29.7063 196.825 29.8366C197.309 29.97 197.807 30.0456 198.308 30.062V30.8165H187.357V30.062C187.819 30.0461 188.279 29.9847 188.73 29.8786C189.04 29.8084 189.334 29.6823 189.599 29.5065C189.793 29.375 189.949 29.1941 190.05 28.9825C190.14 28.7833 190.184 28.5669 190.181 28.3485C190.181 27.9544 190.115 27.5631 189.987 27.1904C189.846 26.7188 189.636 26.1424 189.364 25.5031L187.671 21.526ZM187.095 20.0116L182.379 8.79275L177.547 20.0116H187.095Z" fill="white"/>
<path d="M198.434 37.1729H62.3352V39.1221H198.434V37.1729Z" fill="white"/>
<path d="M66.1235 46.5315H67.2711V54.5592H66.1235V46.5315Z" fill="white"/>
<path d="M77.9977 54.5591H76.9863V46.3638L82.4674 52.1278V46.5314H83.4787V54.7268L77.9977 48.9052V54.5591Z" fill="white"/>
<path d="M93.5554 53.0027C94.164 53.4504 94.896 53.6993 95.6514 53.7153C96.6994 53.7153 97.0243 53.0761 97.0243 52.5206C97.0243 51.5669 96.1964 51.2682 95.075 50.7023C94.3624 50.3408 93.3406 49.7958 93.3406 48.4491C93.3406 47.3278 94.3047 46.3531 95.882 46.3531C96.5735 46.3447 97.2579 46.4935 97.8837 46.788L97.3596 47.7627C96.9124 47.4937 96.3986 47.3558 95.8767 47.3644C94.8287 47.3644 94.5405 48.0142 94.5405 48.4124C94.5405 49.4028 96.013 49.8482 96.9038 50.3512C97.3135 50.5469 97.6572 50.8578 97.8927 51.246C98.1282 51.6341 98.2452 52.0826 98.2295 52.5363C98.2295 53.883 97.0453 54.7162 95.6095 54.7162C94.6993 54.6988 93.8113 54.4324 93.0419 53.9459L93.5554 53.0027Z" fill="white"/>
<path d="M114.5 51.3051C114.5 52.3531 114.274 54.7269 111.178 54.7269C107.887 54.7269 107.824 51.9182 107.824 51.3051V46.5315H108.992V51.3523C108.992 52.2326 109.16 53.726 111.183 53.726C113.205 53.726 113.378 52.2798 113.378 51.3523V46.5315H114.521L114.5 51.3051Z" fill="white"/>
<path d="M125.362 54.5592H124.215V46.5315H126.987C128.48 46.5315 129.544 47.3647 129.544 48.7952C129.553 49.1028 129.502 49.4092 129.391 49.6964C129.281 49.9836 129.114 50.2458 128.9 50.4675C128.687 50.6892 128.431 50.866 128.149 50.9873C127.866 51.1087 127.562 51.1722 127.254 51.1741L130.214 54.5592H128.794L125.865 51.1846H125.341L125.362 54.5592ZM125.362 50.1733H126.641C127.82 50.1733 128.323 49.6493 128.323 48.8109C128.323 47.6633 127.301 47.5428 126.651 47.5428H125.362V50.1733Z" fill="white"/>
<path d="M140.836 54.5591H139.594L143.534 46.3638L147.485 54.5591H146.243L145.195 52.4003H141.857L140.836 54.5591ZM144.813 51.3889L143.534 48.9314L142.271 51.3889H144.813Z" fill="white"/>
<path d="M158.044 54.5591H157.033V46.3638L162.519 52.1278V46.5314H163.53V54.7268L158.044 48.9052V54.5591Z" fill="white"/>
<path d="M180.293 53.2806C179.932 53.7422 179.469 54.1133 178.939 54.3643C178.41 54.6154 177.829 54.7395 177.243 54.7268C174.34 54.7268 173.109 52.3531 173.109 50.3776C173.109 48.0249 175.063 46.3638 177.521 46.3638C177.993 46.3637 178.46 46.4598 178.893 46.6463C179.326 46.8328 179.717 47.1058 180.041 47.4485L179.255 48.2083C179.033 47.9401 178.754 47.7257 178.437 47.5814C178.12 47.4371 177.775 47.3665 177.427 47.3751C177.02 47.3601 176.615 47.428 176.235 47.5745C175.856 47.721 175.51 47.9431 175.219 48.2273C174.928 48.5115 174.697 48.852 174.542 49.2279C174.386 49.6039 174.309 50.0075 174.314 50.4143C174.314 52.1121 175.304 53.7155 177.086 53.7155C177.545 53.7331 178.001 53.6454 178.421 53.4592C178.841 53.273 179.212 52.9932 179.507 52.6413L180.293 53.2806Z" fill="white"/>
<path d="M194.802 50.7235H191.019V53.5479H194.802V54.5592H189.877V46.5315H194.802V47.5323H191.019V49.7122H194.802V50.7235Z" fill="white"/>
</g>
</g>
<defs>
<clipPath id="clip0_853_853">
<rect width="198.434" height="56" fill="white"/>
</clipPath>
</defs>
</svg>
