<svg  xmlns="http://www.w3.org/2000/svg">
<symbol id="pointer_down" viewBox="0 0 24 24">
  <path d="m12,16.074c-.4,0-.777-.156-1.061-.439l-5.281-5.281.707-.707,5.281,5.281c.189.189.518.189.707,0l5.281-5.281.707.707-5.281,5.281c-.283.283-.66.439-1.061.439Z"/>
</symbol>

<symbol id="pointer_right"  viewBox="0 0 24 24" >
  <path d="m10.279,18.342l-.707-.707,5.281-5.281c.094-.095.146-.22.146-.354s-.052-.259-.146-.354l-5.281-5.281.707-.707,5.281,5.281c.283.283.439.66.439,1.061s-.156.777-.439,1.061l-5.281,5.281Z"/>
</symbol>

<symbol id="pointer_left"  viewBox="0 0 24 24" >
  <path d="m13.646,18.342l-5.281-5.281c-.283-.283-.439-.66-.439-1.061s.156-.777.439-1.061l5.281-5.281.707.707-5.281,5.281c-.094.095-.146.22-.146.354s.052.259.146.354l5.281,5.281-.707.707Z"/>
</symbol>

<symbol id="pointer_up" viewBox="0 0 24 24">
  <path d="m17.635,14.428l-5.281-5.281c-.189-.189-.518-.189-.707,0l-5.281,5.281-.707-.707,5.281-5.281c.566-.566,1.555-.566,2.121,0l5.281,5.281-.707.707Z"/>
</symbol>


<symbol id="icon_pgf_file" viewBox="0 0 24 24">
 <path d="M20.1,5.39l-3.49-3.49c-1.23-1.23-2.86-1.9-4.6-1.9H6.5C4.02,0,2,2.02,2,4.5v15c0,2.48,2.02,4.5,4.5,4.5h11c2.48,0,4.5-2.02,4.5-4.5V9.99c0-1.74-.68-3.37-1.9-4.6Zm-.71,.71c.55,.55,.97,1.2,1.24,1.9h-5.13c-.83,0-1.5-.67-1.5-1.5V1.37c.71,.27,1.35,.69,1.9,1.24l3.49,3.49Zm1.61,13.4c0,1.93-1.57,3.5-3.5,3.5H6.5c-1.93,0-3.5-1.57-3.5-3.5V4.5c0-1.93,1.57-3.5,3.5-3.5h5.51c.33,0,.66,.03,.99,.09V6.5c0,1.38,1.12,2.5,2.5,2.5h5.41c.06,.32,.09,.65,.09,.99v9.51ZM6.97,13h-.97c-.55,0-1,.45-1,1v4.5c0,.28,.22,.5,.5,.5s.5-.22,.5-.5v-1.5h.97c1.11,0,2.01-.92,2.01-2.02s-.9-1.98-2.01-1.98Zm0,3h-.97v-2h.97c.56,0,1.01,.44,1.01,.98s-.46,1.02-1.01,1.02Zm5.03-3h0s-.51,0-1,0c-.55,0-1,.45-1,1v4c0,.55,.45,1,1,1,.48,0,.97,0,1,0h0c1.11,0,2-.89,2-1.98v-2.03c0-1.09-.89-1.98-2-1.98Zm1,4.02c0,.53-.43,.96-.96,.98h-1.04v-4h1.04c.53,.02,.96,.46,.96,.98v2.03Zm6-3.52c0,.28-.22,.5-.5,.5h-2.5v2s1.5,0,1.5,0c.28,0,.5,.22,.5,.5s-.22,.5-.5,.5h-1.5v1.5c0,.28-.22,.5-.5,.5s-.5-.22-.5-.5v-4.5c0-.55,.45-1,1-1h2.5c.28,0,.5,.22,.5,.5Z"/>
</symbol>

<symbol id="arrow_circle_right" viewBox="0 0 24 24">
 <path d="M12,0C5.383,0,0,5.383,0,12s5.383,12,12,12,12-5.383,12-12S18.617,0,12,0Zm0,23c-6.065,0-11-4.935-11-11S5.935,1,12,1s11,4.935,11,11-4.935,11-11,11Z"/><path d="M16.613,9.528l-2.828-2.879c-.194-.197-.51-.2-.707-.006-.197,.194-.2,.51-.006,.708l2.831,2.882c.187,.187,.448,.473,.715,.774,.131,.148,.224,.316,.286,.493H6.5c-.276,0-.5,.224-.5,.5s.224,.5,.5,.5h10.404c-.063,.177-.155,.345-.287,.493-.266,.301-.527,.587-.717,.777l-2.828,2.879c-.194,.197-.191,.514,.006,.708,.098,.095,.224,.143,.351,.143,.129,0,.259-.05,.356-.149l2.825-2.876c.198-.198,.475-.5,.756-.818,.837-.944,.837-2.368,0-3.312-.282-.318-.559-.621-.753-.815Z"/>
</symbol>

</svg>